<svg xmlns="http://www.w3.org/2000/svg" width="1200" height="630" viewBox="0 0 1200 630">
  <defs>
    <linearGradient id="bgNews" x1="0%" y1="0%" x2="100%" y2="100%">
      <stop offset="0%" style="stop-color:#1a1a2e;stop-opacity:1" />
      <stop offset="100%" style="stop-color:#16213e;stop-opacity:1" />
    </linearGradient>
  </defs>
  
  <!-- Background -->
  <rect width="1200" height="630" fill="url(#bgNews)"/>
  
  <!-- Data sources (top) -->
  <g transform="translate(100, 80)">
    <!-- Source boxes -->
    <rect x="0" y="0" width="140" height="50" rx="6" fill="#e74c3c" opacity="0.8"/>
    <text x="70" y="30" font-family="Arial" font-size="14" fill="white" text-anchor="middle">OpenAlex</text>
    
    <rect x="160" y="0" width="140" height="50" rx="6" fill="#3498db" opacity="0.8"/>
    <text x="230" y="30" font-family="Arial" font-size="14" fill="white" text-anchor="middle">PubMed</text>
    
    <rect x="320" y="0" width="140" height="50" rx="6" fill="#9b59b6" opacity="0.8"/>
    <text x="390" y="30" font-family="Arial" font-size="14" fill="white" text-anchor="middle">arXiv</text>
    
    <rect x="480" y="0" width="140" height="50" rx="6" fill="#2ecc71" opacity="0.8"/>
    <text x="550" y="30" font-family="Arial" font-size="14" fill="white" text-anchor="middle">Crossref</text>
    
    <rect x="640" y="0" width="140" height="50" rx="6" fill="#f39c12" opacity="0.8"/>
    <text x="710" y="30" font-family="Arial" font-size="14" fill="white" text-anchor="middle">GitHub</text>
    
    <rect x="800" y="0" width="140" height="50" rx="6" fill="#1abc9c" opacity="0.8"/>
    <text x="870" y="30" font-family="Arial" font-size="14" fill="white" text-anchor="middle">Google</text>
  </g>
  
  <!-- Arrows down -->
  <g stroke="#6b7280" stroke-width="2" opacity="0.6">
    <line x1="170" y1="140" x2="600" y2="180"/>
    <line x1="330" y1="140" x2="600" y2="180"/>
    <line x1="490" y1="140" x2="600" y2="180"/>
    <line x1="650" y1="140" x2="600" y2="180"/>
    <line x1="810" y1="140" x2="600" y2="180"/>
    <line x1="970" y1="140" x2="600" y2="180"/>
  </g>
  
  <!-- Processing pipeline -->
  <g transform="translate(450, 180)">
    <!-- Funnel shape -->
    <path d="M0 0 L300 0 L250 60 L50 60 Z" fill="#4b5563" opacity="0.6"/>
    <text x="150" y="40" font-family="Arial" font-size="14" fill="white" text-anchor="middle">Deduplicate + Filter</text>
  </g>
  
  <!-- AI Editor box -->
  <g transform="translate(400, 260)">
    <rect x="0" y="0" width="400" height="120" rx="10" fill="#8b5cf6" opacity="0.3" stroke="#8b5cf6" stroke-width="2"/>
    <text x="200" y="30" font-family="Arial" font-size="16" fill="#a78bfa" text-anchor="middle">🤖 AI Editor (LLM)</text>
    
    <!-- Features -->
    <text x="30" y="55" font-family="Arial" font-size="11" fill="#c4b5fd">✓ Write headlines</text>
    <text x="30" y="75" font-family="Arial" font-size="11" fill="#c4b5fd">✓ Summarize papers</text>
    <text x="30" y="95" font-family="Arial" font-size="11" fill="#c4b5fd">✓ Score relevance</text>
    <text x="200" y="55" font-family="Arial" font-size="11" fill="#c4b5fd">✓ Categorize (Tool/Method)</text>
    <text x="200" y="75" font-family="Arial" font-size="11" fill="#c4b5fd">✓ Extract models mentioned</text>
    <text x="200" y="95" font-family="Arial" font-size="11" fill="#c4b5fd">✓ Find PDF links</text>
  </g>
  
  <!-- Arrow down -->
  <path d="M600 390 L600 420" stroke="#22c55e" stroke-width="3"/>
  <polygon points="592,420 600,440 608,420" fill="#22c55e"/>
  
  <!-- Newsletter output -->
  <g transform="translate(350, 450)">
    <rect x="0" y="0" width="500" height="140" rx="10" fill="#1e293b" stroke="#22c55e" stroke-width="2"/>
    
    <!-- Newsletter content -->
    <text x="20" y="30" font-family="Arial" font-size="14" fill="#22c55e">📰 newsletter_2025_12_02.md</text>
    
    <rect x="20" y="45" width="220" height="80" rx="4" fill="#0f172a"/>
    <text x="30" y="65" font-family="Arial" font-size="10" fill="#64748b">## New Tool/App</text>
    <text x="30" y="80" font-family="Arial" font-size="9" fill="white">### MetaBeeAI: Pipeline for SRs</text>
    <text x="30" y="95" font-family="Arial" font-size="8" fill="#94a3b8">Models: GPT-4 | Relevance: 9/10</text>
    <text x="30" y="110" font-family="Arial" font-size="8" fill="#4ade80">🔗 DOI | PDF</text>
    
    <rect x="260" y="45" width="220" height="80" rx="4" fill="#0f172a"/>
    <text x="270" y="65" font-family="Arial" font-size="10" fill="#64748b">## Methodology</text>
    <text x="270" y="80" font-family="Arial" font-size="9" fill="white">### Automated RoB Assessment</text>
    <text x="270" y="95" font-family="Arial" font-size="8" fill="#94a3b8">Models: Claude 3.5 | Relevance: 8/10</text>
    <text x="270" y="110" font-family="Arial" font-size="8" fill="#4ade80">🔗 arXiv</text>
  </g>
  
  <!-- Title -->
  <text x="600" y="40" font-family="Arial" font-size="24" font-weight="bold" fill="white" text-anchor="middle">Automating Your Evidence Synthesis Newsletter</text>
  <text x="600" y="65" font-family="Arial" font-size="14" fill="#94a3b8" text-anchor="middle">Multi-source ingestion → AI Editor → Ready-to-publish digest</text>
</svg>
