<?xml version="1.0" encoding="utf-8" standalone="no"?>
<!DOCTYPE svg PUBLIC "-//W3C//DTD SVG 1.1//EN"
  "http://www.w3.org/Graphics/SVG/1.1/DTD/svg11.dtd">
<svg xmlns:xlink="http://www.w3.org/1999/xlink" width="568.8pt" height="568.8pt" viewBox="0 0 568.8 568.8" xmlns="http://www.w3.org/2000/svg" version="1.1">
 <metadata>
  <rdf:RDF xmlns:dc="http://purl.org/dc/elements/1.1/" xmlns:cc="http://creativecommons.org/ns#" xmlns:rdf="http://www.w3.org/1999/02/22-rdf-syntax-ns#">
   <cc:Work>
    <dc:type rdf:resource="http://purl.org/dc/dcmitype/StillImage"/>
    <dc:date>2026-03-02T22:51:31.359917</dc:date>
    <dc:format>image/svg+xml</dc:format>
    <dc:creator>
     <cc:Agent>
      <dc:title>Matplotlib v3.10.8, https://matplotlib.org/</dc:title>
     </cc:Agent>
    </dc:creator>
   </cc:Work>
  </rdf:RDF>
 </metadata>
 <defs>
  <style type="text/css">*{stroke-linejoin: round; stroke-linecap: butt}</style>
 </defs>
 <g id="figure_1">
  <g id="patch_1">
   <path d="M 0 568.8 
L 568.8 568.8 
L 568.8 0 
L 0 0 
z
" style="fill: #ffffff"/>
  </g>
  <g id="axes_1">
   <g id="line2d_1">
    <path d="M 409.8464 409.8464 
L 284.4 106.992 
" clip-path="url(#p47724e588b)" style="fill: none; stroke: #2c7bb6; stroke-opacity: 0.261207; stroke-width: 2.263044; stroke-linecap: square"/>
   </g>
   <g id="line2d_2">
    <path d="M 409.8464 409.8464 
L 158.9536 409.8464 
" clip-path="url(#p47724e588b)" style="fill: none; stroke: #2c7bb6; stroke-opacity: 0.280819; stroke-width: 2.92388; stroke-linecap: square"/>
   </g>
   <g id="line2d_3">
    <path d="M 409.8464 409.8464 
L 158.9536 158.9536 
" clip-path="url(#p47724e588b)" style="fill: none; stroke: #2c7bb6; stroke-opacity: 0.255603; stroke-width: 1.837541; stroke-linecap: square"/>
   </g>
   <g id="line2d_4">
    <path d="M 409.8464 409.8464 
L 106.992 284.4 
" clip-path="url(#p47724e588b)" style="fill: none; stroke: #2c7bb6; stroke-opacity: 0.269612; stroke-width: 2.62466; stroke-linecap: square"/>
   </g>
   <g id="line2d_5">
    <path d="M 461.808 284.4 
L 284.4 106.992 
" clip-path="url(#p47724e588b)" style="fill: none; stroke: #2c7bb6; stroke-opacity: 0.9; stroke-width: 5; stroke-linecap: square"/>
   </g>
   <g id="line2d_6">
    <path d="M 461.808 284.4 
L 158.9536 409.8464 
" clip-path="url(#p47724e588b)" style="fill: none; stroke: #2c7bb6; stroke-opacity: 0.258405; stroke-width: 2.082705; stroke-linecap: square"/>
   </g>
   <g id="line2d_7">
    <path d="M 461.808 284.4 
L 158.9536 158.9536 
" clip-path="url(#p47724e588b)" style="fill: none; stroke: #2c7bb6; stroke-opacity: 0.303233; stroke-width: 3.290987; stroke-linecap: square"/>
   </g>
   <g id="line2d_8">
    <path d="M 461.808 284.4 
L 106.992 284.4 
" clip-path="url(#p47724e588b)" style="fill: none; stroke: #2c7bb6; stroke-opacity: 0.702011; stroke-width: 4.750738; stroke-linecap: square"/>
   </g>
   <g id="line2d_9">
    <path d="M 284.4 106.992 
L 158.9536 409.8464 
" clip-path="url(#p47724e588b)" style="fill: none; stroke: #2c7bb6; stroke-opacity: 0.336853; stroke-width: 3.62288; stroke-linecap: square"/>
   </g>
   <g id="line2d_10">
    <path d="M 284.4 106.992 
L 158.9536 158.9536 
" clip-path="url(#p47724e588b)" style="fill: none; stroke: #2c7bb6; stroke-opacity: 0.490948; stroke-width: 4.319543; stroke-linecap: square"/>
   </g>
   <g id="line2d_11">
    <path d="M 284.4 106.992 
L 106.992 284.4 
" clip-path="url(#p47724e588b)" style="fill: none; stroke: #2c7bb6; stroke-opacity: 0.730963; stroke-width: 4.793325; stroke-linecap: square"/>
   </g>
   <g id="line2d_12">
    <path d="M 158.9536 409.8464 
L 158.9536 158.9536 
" clip-path="url(#p47724e588b)" style="fill: none; stroke: #2c7bb6; stroke-opacity: 0.290158; stroke-width: 3.101102; stroke-linecap: square"/>
   </g>
   <g id="line2d_13">
    <path d="M 158.9536 409.8464 
L 106.992 284.4 
" clip-path="url(#p47724e588b)" style="fill: none; stroke: #2c7bb6; stroke-opacity: 0.334052; stroke-width: 3.600585; stroke-linecap: square"/>
   </g>
   <g id="line2d_14">
    <path d="M 158.9536 158.9536 
L 106.992 284.4 
" clip-path="url(#p47724e588b)" style="fill: none; stroke: #2c7bb6; stroke-opacity: 0.552586; stroke-width: 4.475571; stroke-linecap: square"/>
   </g>
   <g id="patch_2">
    <path d="M 284.4 500.616 
C 294.692002 500.616 304.563856 496.526944 311.8414 489.2494 
C 319.118944 481.971856 323.208 472.100002 323.208 461.808 
C 323.208 451.515998 319.118944 441.644144 311.8414 434.3666 
C 304.563856 427.089056 294.692002 423 284.4 423 
C 274.107998 423 264.236144 427.089056 256.9586 434.3666 
C 249.681056 441.644144 245.592 451.515998 245.592 461.808 
C 245.592 472.100002 249.681056 481.971856 256.9586 489.2494 
C 264.236144 496.526944 274.107998 500.616 284.4 500.616 
z
" clip-path="url(#p47724e588b)" style="fill: #cccccc; stroke: #cccccc; stroke-linejoin: miter"/>
   </g>
   <g id="patch_3">
    <path d="M 409.8464 448.6544 
C 420.138402 448.6544 430.010255 444.565344 437.2878 437.2878 
C 444.565344 430.010255 448.6544 420.138402 448.6544 409.8464 
C 448.6544 399.554398 444.565344 389.682544 437.2878 382.405 
C 430.010255 375.127456 420.138402 371.0384 409.8464 371.0384 
C 399.554398 371.0384 389.682544 375.127456 382.405 382.405 
C 375.127456 389.682544 371.0384 399.554398 371.0384 409.8464 
C 371.0384 420.138402 375.127456 430.010255 382.405 437.2878 
C 389.682544 444.565344 399.554398 448.6544 409.8464 448.6544 
z
" clip-path="url(#p47724e588b)" style="fill: #2c7bb6; stroke: #2c7bb6; stroke-linejoin: miter"/>
   </g>
   <g id="patch_4">
    <path d="M 461.808 323.208 
C 472.100002 323.208 481.971856 319.118944 489.2494 311.8414 
C 496.526944 304.563856 500.616 294.692002 500.616 284.4 
C 500.616 274.107998 496.526944 264.236144 489.2494 256.9586 
C 481.971856 249.681056 472.100002 245.592 461.808 245.592 
C 451.515998 245.592 441.644144 249.681056 434.3666 256.9586 
C 427.089056 264.236144 423 274.107998 423 284.4 
C 423 294.692002 427.089056 304.563856 434.3666 311.8414 
C 441.644144 319.118944 451.515998 323.208 461.808 323.208 
z
" clip-path="url(#p47724e588b)" style="fill: #2c7bb6; stroke: #2c7bb6; stroke-linejoin: miter"/>
   </g>
   <g id="patch_5">
    <path d="M 409.8464 197.7616 
C 420.138402 197.7616 430.010255 193.672544 437.2878 186.395 
C 444.565344 179.117456 448.6544 169.245602 448.6544 158.9536 
C 448.6544 148.661598 444.565344 138.789745 437.2878 131.5122 
C 430.010255 124.234656 420.138402 120.1456 409.8464 120.1456 
C 399.554398 120.1456 389.682544 124.234656 382.405 131.5122 
C 375.127456 138.789745 371.0384 148.661598 371.0384 158.9536 
C 371.0384 169.245602 375.127456 179.117456 382.405 186.395 
C 389.682544 193.672544 399.554398 197.7616 409.8464 197.7616 
z
" clip-path="url(#p47724e588b)" style="fill: #cccccc; stroke: #cccccc; stroke-linejoin: miter"/>
   </g>
   <g id="patch_6">
    <path d="M 284.4 145.8 
C 294.692002 145.8 304.563856 141.710944 311.8414 134.4334 
C 319.118944 127.155856 323.208 117.284002 323.208 106.992 
C 323.208 96.699998 319.118944 86.828144 311.8414 79.5506 
C 304.563856 72.273056 294.692002 68.184 284.4 68.184 
C 274.107998 68.184 264.236144 72.273056 256.9586 79.5506 
C 249.681056 86.828144 245.592 96.699998 245.592 106.992 
C 245.592 117.284002 249.681056 127.155856 256.9586 134.4334 
C 264.236144 141.710944 274.107998 145.8 284.4 145.8 
z
" clip-path="url(#p47724e588b)" style="fill: #2c7bb6; stroke: #2c7bb6; stroke-linejoin: miter"/>
   </g>
   <g id="patch_7">
    <path d="M 158.9536 197.7616 
C 169.245602 197.7616 179.117456 193.672544 186.395 186.395 
C 193.672544 179.117456 197.7616 169.245602 197.7616 158.9536 
C 197.7616 148.661598 193.672544 138.789745 186.395 131.5122 
C 179.117456 124.234656 169.245602 120.1456 158.9536 120.1456 
C 148.661598 120.1456 138.789745 124.234656 131.5122 131.5122 
C 124.234656 138.789745 120.1456 148.661598 120.1456 158.9536 
C 120.1456 169.245602 124.234656 179.117456 131.5122 186.395 
C 138.789745 193.672544 148.661598 197.7616 158.9536 197.7616 
z
" clip-path="url(#p47724e588b)" style="fill: #2c7bb6; stroke: #2c7bb6; stroke-linejoin: miter"/>
   </g>
   <g id="patch_8">
    <path d="M 106.992 323.208 
C 117.284002 323.208 127.155856 319.118944 134.4334 311.8414 
C 141.710944 304.563856 145.8 294.692002 145.8 284.4 
C 145.8 274.107998 141.710944 264.236144 134.4334 256.9586 
C 127.155856 249.681056 117.284002 245.592 106.992 245.592 
C 96.699998 245.592 86.828144 249.681056 79.5506 256.9586 
C 72.273056 264.236144 68.184 274.107998 68.184 284.4 
C 68.184 294.692002 72.273056 304.563856 79.5506 311.8414 
C 86.828144 319.118944 96.699998 323.208 106.992 323.208 
z
" clip-path="url(#p47724e588b)" style="fill: #2c7bb6; stroke: #2c7bb6; stroke-linejoin: miter"/>
   </g>
   <g id="patch_9">
    <path d="M 158.9536 448.6544 
C 169.245602 448.6544 179.117456 444.565344 186.395 437.2878 
C 193.672544 430.010255 197.7616 420.138402 197.7616 409.8464 
C 197.7616 399.554398 193.672544 389.682544 186.395 382.405 
C 179.117456 375.127456 169.245602 371.0384 158.9536 371.0384 
C 148.661598 371.0384 138.789745 375.127456 131.5122 382.405 
C 124.234656 389.682544 120.1456 399.554398 120.1456 409.8464 
C 120.1456 420.138402 124.234656 430.010255 131.5122 437.2878 
C 138.789745 444.565344 148.661598 448.6544 158.9536 448.6544 
z
" clip-path="url(#p47724e588b)" style="fill: #2c7bb6; stroke: #2c7bb6; stroke-linejoin: miter"/>
   </g>
   <g id="text_1">
    <!-- Line thickness proportional to co-occurrence -->
    <g style="fill: #666666" transform="translate(195.165625 537.152375) scale(0.08 -0.08)">
     <defs>
      <path id="DejaVuSans-Oblique-4c" d="M 1075 4666 
L 1709 4666 
L 909 525 
L 3181 525 
L 3078 0 
L 172 0 
L 1075 4666 
z
" transform="scale(0.015625)"/>
      <path id="DejaVuSans-Oblique-69" d="M 1172 4863 
L 1747 4863 
L 1606 4134 
L 1031 4134 
L 1172 4863 
z
M 909 3500 
L 1484 3500 
L 800 0 
L 225 0 
L 909 3500 
z
" transform="scale(0.015625)"/>
      <path id="DejaVuSans-Oblique-6e" d="M 3566 2113 
L 3156 0 
L 2578 0 
L 2988 2091 
Q 3016 2238 3031 2350 
Q 3047 2463 3047 2528 
Q 3047 2791 2881 2937 
Q 2716 3084 2419 3084 
Q 1956 3084 1622 2776 
Q 1288 2469 1184 1941 
L 800 0 
L 225 0 
L 903 3500 
L 1478 3500 
L 1363 2950 
Q 1603 3253 1940 3418 
Q 2278 3584 2650 3584 
Q 3113 3584 3367 3334 
Q 3622 3084 3622 2631 
Q 3622 2519 3608 2391 
Q 3594 2263 3566 2113 
z
" transform="scale(0.015625)"/>
      <path id="DejaVuSans-Oblique-65" d="M 3078 2063 
Q 3088 2113 3092 2166 
Q 3097 2219 3097 2272 
Q 3097 2653 2873 2875 
Q 2650 3097 2266 3097 
Q 1838 3097 1509 2826 
Q 1181 2556 1013 2059 
L 3078 2063 
z
M 3578 1613 
L 903 1613 
Q 884 1494 878 1425 
Q 872 1356 872 1306 
Q 872 872 1139 634 
Q 1406 397 1894 397 
Q 2269 397 2603 481 
Q 2938 566 3225 728 
L 3116 159 
Q 2806 34 2476 -28 
Q 2147 -91 1806 -91 
Q 1078 -91 686 257 
Q 294 606 294 1247 
Q 294 1794 489 2264 
Q 684 2734 1063 3103 
Q 1306 3334 1642 3459 
Q 1978 3584 2356 3584 
Q 2950 3584 3301 3228 
Q 3653 2872 3653 2272 
Q 3653 2128 3634 1964 
Q 3616 1800 3578 1613 
z
" transform="scale(0.015625)"/>
      <path id="DejaVuSans-Oblique-20" transform="scale(0.015625)"/>
      <path id="DejaVuSans-Oblique-74" d="M 2706 3500 
L 2619 3053 
L 1472 3053 
L 1100 1153 
Q 1081 1047 1072 975 
Q 1063 903 1063 863 
Q 1063 663 1183 572 
Q 1303 481 1569 481 
L 2150 481 
L 2053 0 
L 1503 0 
Q 991 0 739 200 
Q 488 400 488 806 
Q 488 878 497 964 
Q 506 1050 525 1153 
L 897 3053 
L 409 3053 
L 500 3500 
L 978 3500 
L 1172 4494 
L 1747 4494 
L 1556 3500 
L 2706 3500 
z
" transform="scale(0.015625)"/>
      <path id="DejaVuSans-Oblique-68" d="M 3566 2113 
L 3156 0 
L 2578 0 
L 2988 2091 
Q 3016 2238 3031 2350 
Q 3047 2463 3047 2528 
Q 3047 2791 2881 2937 
Q 2716 3084 2419 3084 
Q 1956 3084 1617 2771 
Q 1278 2459 1178 1941 
L 800 0 
L 225 0 
L 1172 4863 
L 1747 4863 
L 1375 2950 
Q 1594 3244 1934 3414 
Q 2275 3584 2650 3584 
Q 3113 3584 3367 3334 
Q 3622 3084 3622 2631 
Q 3622 2519 3608 2391 
Q 3594 2263 3566 2113 
z
" transform="scale(0.015625)"/>
      <path id="DejaVuSans-Oblique-63" d="M 3431 3366 
L 3316 2797 
Q 3109 2947 2876 3022 
Q 2644 3097 2394 3097 
Q 2119 3097 1870 3000 
Q 1622 2903 1453 2725 
Q 1184 2453 1037 2087 
Q 891 1722 891 1331 
Q 891 859 1127 628 
Q 1363 397 1844 397 
Q 2081 397 2348 469 
Q 2616 541 2906 684 
L 2797 116 
Q 2547 13 2283 -39 
Q 2019 -91 1741 -91 
Q 1044 -91 669 257 
Q 294 606 294 1253 
Q 294 1797 489 2255 
Q 684 2713 1069 3078 
Q 1331 3328 1684 3456 
Q 2038 3584 2456 3584 
Q 2700 3584 2940 3529 
Q 3181 3475 3431 3366 
z
" transform="scale(0.015625)"/>
      <path id="DejaVuSans-Oblique-6b" d="M 1172 4863 
L 1747 4863 
L 1197 2028 
L 3169 3500 
L 3916 3500 
L 1716 1825 
L 3322 0 
L 2625 0 
L 1131 1709 
L 800 0 
L 225 0 
L 1172 4863 
z
" transform="scale(0.015625)"/>
      <path id="DejaVuSans-Oblique-73" d="M 3200 3397 
L 3091 2853 
Q 2863 2978 2609 3040 
Q 2356 3103 2088 3103 
Q 1634 3103 1373 2948 
Q 1113 2794 1113 2528 
Q 1113 2219 1719 2053 
Q 1766 2041 1788 2034 
L 1972 1978 
Q 2547 1819 2739 1644 
Q 2931 1469 2931 1166 
Q 2931 609 2489 259 
Q 2047 -91 1331 -91 
Q 1053 -91 747 -37 
Q 441 16 72 128 
L 184 722 
Q 500 559 806 475 
Q 1113 391 1394 391 
Q 1816 391 2080 572 
Q 2344 753 2344 1031 
Q 2344 1331 1650 1516 
L 1591 1531 
L 1394 1581 
Q 956 1697 753 1886 
Q 550 2075 550 2369 
Q 550 2928 970 3256 
Q 1391 3584 2113 3584 
Q 2397 3584 2667 3537 
Q 2938 3491 3200 3397 
z
" transform="scale(0.015625)"/>
      <path id="DejaVuSans-Oblique-70" d="M 3175 2156 
Q 3175 2616 2975 2859 
Q 2775 3103 2400 3103 
Q 2144 3103 1911 2972 
Q 1678 2841 1497 2591 
Q 1319 2344 1212 1994 
Q 1106 1644 1106 1300 
Q 1106 863 1306 627 
Q 1506 391 1875 391 
Q 2147 391 2380 519 
Q 2613 647 2778 891 
Q 2956 1147 3065 1494 
Q 3175 1841 3175 2156 
z
M 1394 2969 
Q 1625 3272 1939 3428 
Q 2253 3584 2638 3584 
Q 3175 3584 3472 3232 
Q 3769 2881 3769 2247 
Q 3769 1728 3584 1258 
Q 3400 788 3053 416 
Q 2822 169 2531 39 
Q 2241 -91 1919 -91 
Q 1547 -91 1294 64 
Q 1041 219 916 525 
L 556 -1331 
L -19 -1331 
L 922 3500 
L 1497 3500 
L 1394 2969 
z
" transform="scale(0.015625)"/>
      <path id="DejaVuSans-Oblique-72" d="M 2853 2969 
Q 2766 3016 2653 3041 
Q 2541 3066 2413 3066 
Q 1953 3066 1609 2717 
Q 1266 2369 1153 1784 
L 800 0 
L 225 0 
L 909 3500 
L 1484 3500 
L 1375 2956 
Q 1603 3259 1920 3421 
Q 2238 3584 2597 3584 
Q 2691 3584 2781 3573 
Q 2872 3563 2963 3538 
L 2853 2969 
z
" transform="scale(0.015625)"/>
      <path id="DejaVuSans-Oblique-6f" d="M 1625 -91 
Q 1009 -91 651 289 
Q 294 669 294 1325 
Q 294 1706 417 2101 
Q 541 2497 738 2766 
Q 1047 3184 1428 3384 
Q 1809 3584 2291 3584 
Q 2888 3584 3255 3212 
Q 3622 2841 3622 2241 
Q 3622 1825 3500 1412 
Q 3378 1000 3181 728 
Q 2875 309 2494 109 
Q 2113 -91 1625 -91 
z
M 891 1344 
Q 891 869 1089 633 
Q 1288 397 1691 397 
Q 2269 397 2648 901 
Q 3028 1406 3028 2181 
Q 3028 2634 2825 2865 
Q 2622 3097 2228 3097 
Q 1903 3097 1650 2945 
Q 1397 2794 1197 2484 
Q 1050 2253 970 1956 
Q 891 1659 891 1344 
z
" transform="scale(0.015625)"/>
      <path id="DejaVuSans-Oblique-61" d="M 3438 1997 
L 3047 0 
L 2472 0 
L 2578 531 
Q 2325 219 2001 64 
Q 1678 -91 1281 -91 
Q 834 -91 548 182 
Q 263 456 263 884 
Q 263 1497 752 1853 
Q 1241 2209 2100 2209 
L 2900 2209 
L 2931 2363 
Q 2938 2388 2941 2417 
Q 2944 2447 2944 2509 
Q 2944 2788 2717 2942 
Q 2491 3097 2081 3097 
Q 1800 3097 1504 3025 
Q 1209 2953 897 2809 
L 997 3341 
Q 1322 3463 1633 3523 
Q 1944 3584 2234 3584 
Q 2853 3584 3176 3315 
Q 3500 3047 3500 2534 
Q 3500 2431 3484 2292 
Q 3469 2153 3438 1997 
z
M 2816 1759 
L 2241 1759 
Q 1534 1759 1195 1570 
Q 856 1381 856 984 
Q 856 709 1029 553 
Q 1203 397 1509 397 
Q 1978 397 2328 733 
Q 2678 1069 2791 1631 
L 2816 1759 
z
" transform="scale(0.015625)"/>
      <path id="DejaVuSans-Oblique-6c" d="M 1172 4863 
L 1747 4863 
L 800 0 
L 225 0 
L 1172 4863 
z
" transform="scale(0.015625)"/>
      <path id="DejaVuSans-Oblique-2d" d="M 391 2009 
L 2075 2009 
L 1978 1497 
L 288 1497 
L 391 2009 
z
" transform="scale(0.015625)"/>
      <path id="DejaVuSans-Oblique-75" d="M 428 1388 
L 838 3500 
L 1416 3500 
L 1006 1409 
Q 975 1256 961 1147 
Q 947 1038 947 966 
Q 947 700 1109 554 
Q 1272 409 1569 409 
Q 2031 409 2368 721 
Q 2706 1034 2809 1563 
L 3194 3500 
L 3769 3500 
L 3091 0 
L 2516 0 
L 2631 550 
Q 2388 244 2052 76 
Q 1716 -91 1338 -91 
Q 878 -91 622 161 
Q 366 413 366 863 
Q 366 956 381 1097 
Q 397 1238 428 1388 
z
" transform="scale(0.015625)"/>
     </defs>
     <use xlink:href="#DejaVuSans-Oblique-4c"/>
     <use xlink:href="#DejaVuSans-Oblique-69" transform="translate(55.712891 0)"/>
     <use xlink:href="#DejaVuSans-Oblique-6e" transform="translate(83.496094 0)"/>
     <use xlink:href="#DejaVuSans-Oblique-65" transform="translate(146.875 0)"/>
     <use xlink:href="#DejaVuSans-Oblique-20" transform="translate(208.398438 0)"/>
     <use xlink:href="#DejaVuSans-Oblique-74" transform="translate(240.185547 0)"/>
     <use xlink:href="#DejaVuSans-Oblique-68" transform="translate(279.394531 0)"/>
     <use xlink:href="#DejaVuSans-Oblique-69" transform="translate(342.773438 0)"/>
     <use xlink:href="#DejaVuSans-Oblique-63" transform="translate(370.556641 0)"/>
     <use xlink:href="#DejaVuSans-Oblique-6b" transform="translate(425.537109 0)"/>
     <use xlink:href="#DejaVuSans-Oblique-6e" transform="translate(483.447266 0)"/>
     <use xlink:href="#DejaVuSans-Oblique-65" transform="translate(546.826172 0)"/>
     <use xlink:href="#DejaVuSans-Oblique-73" transform="translate(608.349609 0)"/>
     <use xlink:href="#DejaVuSans-Oblique-73" transform="translate(660.449219 0)"/>
     <use xlink:href="#DejaVuSans-Oblique-20" transform="translate(712.548828 0)"/>
     <use xlink:href="#DejaVuSans-Oblique-70" transform="translate(744.335938 0)"/>
     <use xlink:href="#DejaVuSans-Oblique-72" transform="translate(807.8125 0)"/>
     <use xlink:href="#DejaVuSans-Oblique-6f" transform="translate(848.925781 0)"/>
     <use xlink:href="#DejaVuSans-Oblique-70" transform="translate(910.107422 0)"/>
     <use xlink:href="#DejaVuSans-Oblique-6f" transform="translate(973.583984 0)"/>
     <use xlink:href="#DejaVuSans-Oblique-72" transform="translate(1034.765625 0)"/>
     <use xlink:href="#DejaVuSans-Oblique-74" transform="translate(1075.878906 0)"/>
     <use xlink:href="#DejaVuSans-Oblique-69" transform="translate(1115.087891 0)"/>
     <use xlink:href="#DejaVuSans-Oblique-6f" transform="translate(1142.871094 0)"/>
     <use xlink:href="#DejaVuSans-Oblique-6e" transform="translate(1204.052734 0)"/>
     <use xlink:href="#DejaVuSans-Oblique-61" transform="translate(1267.431641 0)"/>
     <use xlink:href="#DejaVuSans-Oblique-6c" transform="translate(1328.710938 0)"/>
     <use xlink:href="#DejaVuSans-Oblique-20" transform="translate(1356.494141 0)"/>
     <use xlink:href="#DejaVuSans-Oblique-74" transform="translate(1388.28125 0)"/>
     <use xlink:href="#DejaVuSans-Oblique-6f" transform="translate(1427.490234 0)"/>
     <use xlink:href="#DejaVuSans-Oblique-20" transform="translate(1488.671875 0)"/>
     <use xlink:href="#DejaVuSans-Oblique-63" transform="translate(1520.458984 0)"/>
     <use xlink:href="#DejaVuSans-Oblique-6f" transform="translate(1575.439453 0)"/>
     <use xlink:href="#DejaVuSans-Oblique-2d" transform="translate(1636.621094 0)"/>
     <use xlink:href="#DejaVuSans-Oblique-6f" transform="translate(1672.705078 0)"/>
     <use xlink:href="#DejaVuSans-Oblique-63" transform="translate(1733.886719 0)"/>
     <use xlink:href="#DejaVuSans-Oblique-63" transform="translate(1788.867188 0)"/>
     <use xlink:href="#DejaVuSans-Oblique-75" transform="translate(1843.847656 0)"/>
     <use xlink:href="#DejaVuSans-Oblique-72" transform="translate(1907.226562 0)"/>
     <use xlink:href="#DejaVuSans-Oblique-72" transform="translate(1948.339844 0)"/>
     <use xlink:href="#DejaVuSans-Oblique-65" transform="translate(1989.453125 0)"/>
     <use xlink:href="#DejaVuSans-Oblique-6e" transform="translate(2050.976562 0)"/>
     <use xlink:href="#DejaVuSans-Oblique-63" transform="translate(2114.355469 0)"/>
     <use xlink:href="#DejaVuSans-Oblique-65" transform="translate(2169.335938 0)"/>
    </g>
    <!-- in the evaluation literature (OpenAlex, 2000–2025) -->
    <g style="fill: #666666" transform="translate(182.124375 546.110625) scale(0.08 -0.08)">
     <defs>
      <path id="DejaVuSans-Oblique-76" d="M 459 3500 
L 1069 3500 
L 1581 525 
L 3256 3500 
L 3866 3500 
L 1875 0 
L 1100 0 
L 459 3500 
z
" transform="scale(0.015625)"/>
      <path id="DejaVuSans-Oblique-28" d="M 2731 4856 
Q 1903 3822 1495 2892 
Q 1088 1963 1088 1100 
Q 1088 606 1206 120 
Q 1325 -366 1563 -844 
L 1063 -844 
Q 775 -306 634 201 
Q 494 709 494 1197 
Q 494 2125 923 3036 
Q 1353 3947 2222 4856 
L 2731 4856 
z
" transform="scale(0.015625)"/>
      <path id="DejaVuSans-Oblique-4f" d="M 2919 4238 
Q 2400 4238 2003 3986 
Q 1606 3734 1313 3219 
Q 1125 2891 1026 2522 
Q 928 2153 928 1778 
Q 928 1128 1239 775 
Q 1550 422 2119 422 
Q 2631 422 3032 676 
Q 3434 931 3719 1434 
Q 3909 1772 4009 2142 
Q 4109 2513 4109 2881 
Q 4109 3528 3796 3883 
Q 3484 4238 2919 4238 
z
M 2100 -91 
Q 1241 -91 748 418 
Q 256 928 256 1813 
Q 256 2319 448 2847 
Q 641 3375 978 3788 
Q 1375 4272 1862 4511 
Q 2350 4750 2938 4750 
Q 3794 4750 4287 4245 
Q 4781 3741 4781 2869 
Q 4781 2331 4593 1812 
Q 4406 1294 4056 872 
Q 3656 384 3173 146 
Q 2691 -91 2100 -91 
z
" transform="scale(0.015625)"/>
      <path id="DejaVuSans-Oblique-41" d="M 2356 4666 
L 3072 4666 
L 3938 0 
L 3278 0 
L 3084 1197 
L 984 1197 
L 325 0 
L -341 0 
L 2356 4666 
z
M 2584 4044 
L 1275 1722 
L 2988 1722 
L 2584 4044 
z
" transform="scale(0.015625)"/>
      <path id="DejaVuSans-Oblique-78" d="M 3841 3500 
L 2234 1784 
L 3219 0 
L 2559 0 
L 1819 1388 
L 531 0 
L -166 0 
L 1556 1844 
L 641 3500 
L 1300 3500 
L 1972 2234 
L 3144 3500 
L 3841 3500 
z
" transform="scale(0.015625)"/>
      <path id="DejaVuSans-Oblique-2c" d="M 575 794 
L 1234 794 
L 1131 256 
L 422 -744 
L 19 -744 
L 469 256 
L 575 794 
z
" transform="scale(0.015625)"/>
      <path id="DejaVuSans-Oblique-32" d="M 2950 2253 
L 934 525 
L 3163 525 
L 3053 0 
L 25 0 
L 128 531 
L 2234 2338 
Q 2656 2703 2832 2979 
Q 3009 3256 3009 3547 
Q 3009 3850 2796 4040 
Q 2584 4231 2241 4231 
Q 1944 4231 1581 4125 
Q 1219 4019 806 3816 
L 922 4441 
Q 1309 4594 1662 4672 
Q 2016 4750 2316 4750 
Q 2928 4750 3301 4425 
Q 3675 4100 3675 3572 
Q 3675 3216 3497 2892 
Q 3319 2569 2950 2253 
z
" transform="scale(0.015625)"/>
      <path id="DejaVuSans-Oblique-30" d="M 2444 4750 
Q 3078 4750 3414 4328 
Q 3750 3906 3750 3116 
Q 3750 2516 3592 1923 
Q 3434 1331 3150 863 
Q 2859 394 2467 151 
Q 2075 -91 1600 -91 
Q 988 -91 653 334 
Q 319 759 319 1544 
Q 319 2138 480 2733 
Q 641 3328 928 3794 
Q 1216 4263 1602 4506 
Q 1988 4750 2444 4750 
z
M 2406 4250 
Q 2169 4250 1955 4123 
Q 1741 3997 1569 3750 
Q 1281 3338 1111 2720 
Q 941 2103 941 1453 
Q 941 938 1123 673 
Q 1306 409 1663 409 
Q 1913 409 2125 536 
Q 2338 663 2509 909 
Q 2794 1319 2961 1936 
Q 3128 2553 3128 3206 
Q 3128 3722 2945 3986 
Q 2763 4250 2406 4250 
z
" transform="scale(0.015625)"/>
      <path id="DejaVuSans-Oblique-2013" d="M 356 1978 
L 2931 1978 
L 2844 1528 
L 269 1528 
L 356 1978 
z
" transform="scale(0.015625)"/>
      <path id="DejaVuSans-Oblique-35" d="M 3719 4666 
L 3622 4141 
L 1691 4141 
L 1466 2988 
Q 1609 3034 1757 3056 
Q 1906 3078 2059 3078 
Q 2706 3078 3081 2731 
Q 3456 2384 3456 1791 
Q 3456 1375 3264 994 
Q 3072 613 2719 325 
Q 2469 125 2108 17 
Q 1747 -91 1319 -91 
Q 1038 -91 744 -41 
Q 450 9 128 109 
L 244 697 
Q 531 556 820 486 
Q 1109 416 1403 416 
Q 2013 416 2411 781 
Q 2809 1147 2809 1697 
Q 2809 2103 2548 2328 
Q 2288 2553 1819 2553 
Q 1572 2553 1305 2495 
Q 1038 2438 756 2322 
L 1209 4666 
L 3719 4666 
z
" transform="scale(0.015625)"/>
      <path id="DejaVuSans-Oblique-29" d="M -397 -844 
Q 434 191 840 1120 
Q 1247 2050 1247 2913 
Q 1247 3406 1130 3892 
Q 1013 4378 775 4856 
L 1275 4856 
Q 1563 4316 1703 3812 
Q 1844 3309 1844 2822 
Q 1844 1891 1411 973 
Q 978 56 116 -844 
L -397 -844 
z
" transform="scale(0.015625)"/>
     </defs>
     <use xlink:href="#DejaVuSans-Oblique-69"/>
     <use xlink:href="#DejaVuSans-Oblique-6e" transform="translate(27.783203 0)"/>
     <use xlink:href="#DejaVuSans-Oblique-20" transform="translate(91.162109 0)"/>
     <use xlink:href="#DejaVuSans-Oblique-74" transform="translate(122.949219 0)"/>
     <use xlink:href="#DejaVuSans-Oblique-68" transform="translate(162.158203 0)"/>
     <use xlink:href="#DejaVuSans-Oblique-65" transform="translate(225.537109 0)"/>
     <use xlink:href="#DejaVuSans-Oblique-20" transform="translate(287.060547 0)"/>
     <use xlink:href="#DejaVuSans-Oblique-65" transform="translate(318.847656 0)"/>
     <use xlink:href="#DejaVuSans-Oblique-76" transform="translate(380.371094 0)"/>
     <use xlink:href="#DejaVuSans-Oblique-61" transform="translate(439.550781 0)"/>
     <use xlink:href="#DejaVuSans-Oblique-6c" transform="translate(500.830078 0)"/>
     <use xlink:href="#DejaVuSans-Oblique-75" transform="translate(528.613281 0)"/>
     <use xlink:href="#DejaVuSans-Oblique-61" transform="translate(591.992188 0)"/>
     <use xlink:href="#DejaVuSans-Oblique-74" transform="translate(653.271484 0)"/>
     <use xlink:href="#DejaVuSans-Oblique-69" transform="translate(692.480469 0)"/>
     <use xlink:href="#DejaVuSans-Oblique-6f" transform="translate(720.263672 0)"/>
     <use xlink:href="#DejaVuSans-Oblique-6e" transform="translate(781.445312 0)"/>
     <use xlink:href="#DejaVuSans-Oblique-20" transform="translate(844.824219 0)"/>
     <use xlink:href="#DejaVuSans-Oblique-6c" transform="translate(876.611328 0)"/>
     <use xlink:href="#DejaVuSans-Oblique-69" transform="translate(904.394531 0)"/>
     <use xlink:href="#DejaVuSans-Oblique-74" transform="translate(932.177734 0)"/>
     <use xlink:href="#DejaVuSans-Oblique-65" transform="translate(971.386719 0)"/>
     <use xlink:href="#DejaVuSans-Oblique-72" transform="translate(1032.910156 0)"/>
     <use xlink:href="#DejaVuSans-Oblique-61" transform="translate(1074.023438 0)"/>
     <use xlink:href="#DejaVuSans-Oblique-74" transform="translate(1135.302734 0)"/>
     <use xlink:href="#DejaVuSans-Oblique-75" transform="translate(1174.511719 0)"/>
     <use xlink:href="#DejaVuSans-Oblique-72" transform="translate(1237.890625 0)"/>
     <use xlink:href="#DejaVuSans-Oblique-65" transform="translate(1279.003906 0)"/>
     <use xlink:href="#DejaVuSans-Oblique-20" transform="translate(1340.527344 0)"/>
     <use xlink:href="#DejaVuSans-Oblique-28" transform="translate(1372.314453 0)"/>
     <use xlink:href="#DejaVuSans-Oblique-4f" transform="translate(1411.328125 0)"/>
     <use xlink:href="#DejaVuSans-Oblique-70" transform="translate(1490.039062 0)"/>
     <use xlink:href="#DejaVuSans-Oblique-65" transform="translate(1553.515625 0)"/>
     <use xlink:href="#DejaVuSans-Oblique-6e" transform="translate(1615.039062 0)"/>
     <use xlink:href="#DejaVuSans-Oblique-41" transform="translate(1678.417969 0)"/>
     <use xlink:href="#DejaVuSans-Oblique-6c" transform="translate(1746.826172 0)"/>
     <use xlink:href="#DejaVuSans-Oblique-65" transform="translate(1774.609375 0)"/>
     <use xlink:href="#DejaVuSans-Oblique-78" transform="translate(1836.132812 0)"/>
     <use xlink:href="#DejaVuSans-Oblique-2c" transform="translate(1895.3125 0)"/>
     <use xlink:href="#DejaVuSans-Oblique-20" transform="translate(1927.099609 0)"/>
     <use xlink:href="#DejaVuSans-Oblique-32" transform="translate(1958.886719 0)"/>
     <use xlink:href="#DejaVuSans-Oblique-30" transform="translate(2022.509766 0)"/>
     <use xlink:href="#DejaVuSans-Oblique-30" transform="translate(2086.132812 0)"/>
     <use xlink:href="#DejaVuSans-Oblique-30" transform="translate(2149.755859 0)"/>
     <use xlink:href="#DejaVuSans-Oblique-2013" transform="translate(2213.378906 0)"/>
     <use xlink:href="#DejaVuSans-Oblique-32" transform="translate(2263.378906 0)"/>
     <use xlink:href="#DejaVuSans-Oblique-30" transform="translate(2327.001953 0)"/>
     <use xlink:href="#DejaVuSans-Oblique-32" transform="translate(2390.625 0)"/>
     <use xlink:href="#DejaVuSans-Oblique-35" transform="translate(2454.248047 0)"/>
     <use xlink:href="#DejaVuSans-Oblique-29" transform="translate(2517.871094 0)"/>
    </g>
   </g>
   <g id="text_2">
    <!-- Regularity -->
    <g style="fill: #666666" transform="translate(262.427344 458.304234) scale(0.075 -0.075)">
     <defs>
      <path id="DejaVuSans-Bold-52" d="M 2297 2597 
Q 2675 2597 2839 2737 
Q 3003 2878 3003 3200 
Q 3003 3519 2839 3656 
Q 2675 3794 2297 3794 
L 1791 3794 
L 1791 2597 
L 2297 2597 
z
M 1791 1766 
L 1791 0 
L 588 0 
L 588 4666 
L 2425 4666 
Q 3347 4666 3776 4356 
Q 4206 4047 4206 3378 
Q 4206 2916 3982 2619 
Q 3759 2322 3309 2181 
Q 3556 2125 3751 1926 
Q 3947 1728 4147 1325 
L 4800 0 
L 3519 0 
L 2950 1159 
Q 2778 1509 2601 1637 
Q 2425 1766 2131 1766 
L 1791 1766 
z
" transform="scale(0.015625)"/>
      <path id="DejaVuSans-Bold-65" d="M 4031 1759 
L 4031 1441 
L 1416 1441 
Q 1456 1047 1700 850 
Q 1944 653 2381 653 
Q 2734 653 3104 758 
Q 3475 863 3866 1075 
L 3866 213 
Q 3469 63 3072 -14 
Q 2675 -91 2278 -91 
Q 1328 -91 801 392 
Q 275 875 275 1747 
Q 275 2603 792 3093 
Q 1309 3584 2216 3584 
Q 3041 3584 3536 3087 
Q 4031 2591 4031 1759 
z
M 2881 2131 
Q 2881 2450 2695 2645 
Q 2509 2841 2209 2841 
Q 1884 2841 1681 2658 
Q 1478 2475 1428 2131 
L 2881 2131 
z
" transform="scale(0.015625)"/>
      <path id="DejaVuSans-Bold-67" d="M 2919 594 
Q 2688 288 2409 144 
Q 2131 0 1766 0 
Q 1125 0 706 504 
Q 288 1009 288 1791 
Q 288 2575 706 3076 
Q 1125 3578 1766 3578 
Q 2131 3578 2409 3434 
Q 2688 3291 2919 2981 
L 2919 3500 
L 4044 3500 
L 4044 353 
Q 4044 -491 3511 -936 
Q 2978 -1381 1966 -1381 
Q 1638 -1381 1331 -1331 
Q 1025 -1281 716 -1178 
L 716 -306 
Q 1009 -475 1290 -558 
Q 1572 -641 1856 -641 
Q 2406 -641 2662 -400 
Q 2919 -159 2919 353 
L 2919 594 
z
M 2181 2772 
Q 1834 2772 1640 2515 
Q 1447 2259 1447 1791 
Q 1447 1309 1634 1061 
Q 1822 813 2181 813 
Q 2531 813 2725 1069 
Q 2919 1325 2919 1791 
Q 2919 2259 2725 2515 
Q 2531 2772 2181 2772 
z
" transform="scale(0.015625)"/>
      <path id="DejaVuSans-Bold-75" d="M 500 1363 
L 500 3500 
L 1625 3500 
L 1625 3150 
Q 1625 2866 1622 2436 
Q 1619 2006 1619 1863 
Q 1619 1441 1641 1255 
Q 1663 1069 1716 984 
Q 1784 875 1895 815 
Q 2006 756 2150 756 
Q 2500 756 2700 1025 
Q 2900 1294 2900 1772 
L 2900 3500 
L 4019 3500 
L 4019 0 
L 2900 0 
L 2900 506 
Q 2647 200 2364 54 
Q 2081 -91 1741 -91 
Q 1134 -91 817 281 
Q 500 653 500 1363 
z
" transform="scale(0.015625)"/>
      <path id="DejaVuSans-Bold-6c" d="M 538 4863 
L 1656 4863 
L 1656 0 
L 538 0 
L 538 4863 
z
" transform="scale(0.015625)"/>
      <path id="DejaVuSans-Bold-61" d="M 2106 1575 
Q 1756 1575 1579 1456 
Q 1403 1338 1403 1106 
Q 1403 894 1545 773 
Q 1688 653 1941 653 
Q 2256 653 2472 879 
Q 2688 1106 2688 1447 
L 2688 1575 
L 2106 1575 
z
M 3816 1997 
L 3816 0 
L 2688 0 
L 2688 519 
Q 2463 200 2181 54 
Q 1900 -91 1497 -91 
Q 953 -91 614 226 
Q 275 544 275 1050 
Q 275 1666 698 1953 
Q 1122 2241 2028 2241 
L 2688 2241 
L 2688 2328 
Q 2688 2594 2478 2717 
Q 2269 2841 1825 2841 
Q 1466 2841 1156 2769 
Q 847 2697 581 2553 
L 581 3406 
Q 941 3494 1303 3539 
Q 1666 3584 2028 3584 
Q 2975 3584 3395 3211 
Q 3816 2838 3816 1997 
z
" transform="scale(0.015625)"/>
      <path id="DejaVuSans-Bold-72" d="M 3138 2547 
Q 2991 2616 2845 2648 
Q 2700 2681 2553 2681 
Q 2122 2681 1889 2404 
Q 1656 2128 1656 1613 
L 1656 0 
L 538 0 
L 538 3500 
L 1656 3500 
L 1656 2925 
Q 1872 3269 2151 3426 
Q 2431 3584 2822 3584 
Q 2878 3584 2943 3579 
Q 3009 3575 3134 3559 
L 3138 2547 
z
" transform="scale(0.015625)"/>
      <path id="DejaVuSans-Bold-69" d="M 538 3500 
L 1656 3500 
L 1656 0 
L 538 0 
L 538 3500 
z
M 538 4863 
L 1656 4863 
L 1656 3950 
L 538 3950 
L 538 4863 
z
" transform="scale(0.015625)"/>
      <path id="DejaVuSans-Bold-74" d="M 1759 4494 
L 1759 3500 
L 2913 3500 
L 2913 2700 
L 1759 2700 
L 1759 1216 
Q 1759 972 1856 886 
Q 1953 800 2241 800 
L 2816 800 
L 2816 0 
L 1856 0 
Q 1194 0 917 276 
Q 641 553 641 1216 
L 641 2700 
L 84 2700 
L 84 3500 
L 641 3500 
L 641 4494 
L 1759 4494 
z
" transform="scale(0.015625)"/>
      <path id="DejaVuSans-Bold-79" d="M 78 3500 
L 1197 3500 
L 2138 1125 
L 2938 3500 
L 4056 3500 
L 2584 -331 
Q 2363 -916 2067 -1148 
Q 1772 -1381 1288 -1381 
L 641 -1381 
L 641 -647 
L 991 -647 
Q 1275 -647 1404 -556 
Q 1534 -466 1606 -231 
L 1638 -134 
L 78 3500 
z
" transform="scale(0.015625)"/>
     </defs>
     <use xlink:href="#DejaVuSans-Bold-52"/>
     <use xlink:href="#DejaVuSans-Bold-65" transform="translate(77.001953 0)"/>
     <use xlink:href="#DejaVuSans-Bold-67" transform="translate(144.824219 0)"/>
     <use xlink:href="#DejaVuSans-Bold-75" transform="translate(216.40625 0)"/>
     <use xlink:href="#DejaVuSans-Bold-6c" transform="translate(287.597656 0)"/>
     <use xlink:href="#DejaVuSans-Bold-61" transform="translate(321.875 0)"/>
     <use xlink:href="#DejaVuSans-Bold-72" transform="translate(389.355469 0)"/>
     <use xlink:href="#DejaVuSans-Bold-69" transform="translate(438.671875 0)"/>
     <use xlink:href="#DejaVuSans-Bold-74" transform="translate(472.949219 0)"/>
     <use xlink:href="#DejaVuSans-Bold-79" transform="translate(520.751953 0)"/>
    </g>
   </g>
   <g id="text_3">
    <!-- (boundary) -->
    <g style="fill: #666666; opacity: 0.8" transform="translate(267.764531 482.867625) scale(0.06 -0.06)">
     <defs>
      <path id="DejaVuSans-28" d="M 1984 4856 
Q 1566 4138 1362 3434 
Q 1159 2731 1159 2009 
Q 1159 1288 1364 580 
Q 1569 -128 1984 -844 
L 1484 -844 
Q 1016 -109 783 600 
Q 550 1309 550 2009 
Q 550 2706 781 3412 
Q 1013 4119 1484 4856 
L 1984 4856 
z
" transform="scale(0.015625)"/>
      <path id="DejaVuSans-62" d="M 3116 1747 
Q 3116 2381 2855 2742 
Q 2594 3103 2138 3103 
Q 1681 3103 1420 2742 
Q 1159 2381 1159 1747 
Q 1159 1113 1420 752 
Q 1681 391 2138 391 
Q 2594 391 2855 752 
Q 3116 1113 3116 1747 
z
M 1159 2969 
Q 1341 3281 1617 3432 
Q 1894 3584 2278 3584 
Q 2916 3584 3314 3078 
Q 3713 2572 3713 1747 
Q 3713 922 3314 415 
Q 2916 -91 2278 -91 
Q 1894 -91 1617 61 
Q 1341 213 1159 525 
L 1159 0 
L 581 0 
L 581 4863 
L 1159 4863 
L 1159 2969 
z
" transform="scale(0.015625)"/>
      <path id="DejaVuSans-6f" d="M 1959 3097 
Q 1497 3097 1228 2736 
Q 959 2375 959 1747 
Q 959 1119 1226 758 
Q 1494 397 1959 397 
Q 2419 397 2687 759 
Q 2956 1122 2956 1747 
Q 2956 2369 2687 2733 
Q 2419 3097 1959 3097 
z
M 1959 3584 
Q 2709 3584 3137 3096 
Q 3566 2609 3566 1747 
Q 3566 888 3137 398 
Q 2709 -91 1959 -91 
Q 1206 -91 779 398 
Q 353 888 353 1747 
Q 353 2609 779 3096 
Q 1206 3584 1959 3584 
z
" transform="scale(0.015625)"/>
      <path id="DejaVuSans-75" d="M 544 1381 
L 544 3500 
L 1119 3500 
L 1119 1403 
Q 1119 906 1312 657 
Q 1506 409 1894 409 
Q 2359 409 2629 706 
Q 2900 1003 2900 1516 
L 2900 3500 
L 3475 3500 
L 3475 0 
L 2900 0 
L 2900 538 
Q 2691 219 2414 64 
Q 2138 -91 1772 -91 
Q 1169 -91 856 284 
Q 544 659 544 1381 
z
M 1991 3584 
L 1991 3584 
z
" transform="scale(0.015625)"/>
      <path id="DejaVuSans-6e" d="M 3513 2113 
L 3513 0 
L 2938 0 
L 2938 2094 
Q 2938 2591 2744 2837 
Q 2550 3084 2163 3084 
Q 1697 3084 1428 2787 
Q 1159 2491 1159 1978 
L 1159 0 
L 581 0 
L 581 3500 
L 1159 3500 
L 1159 2956 
Q 1366 3272 1645 3428 
Q 1925 3584 2291 3584 
Q 2894 3584 3203 3211 
Q 3513 2838 3513 2113 
z
" transform="scale(0.015625)"/>
      <path id="DejaVuSans-64" d="M 2906 2969 
L 2906 4863 
L 3481 4863 
L 3481 0 
L 2906 0 
L 2906 525 
Q 2725 213 2448 61 
Q 2172 -91 1784 -91 
Q 1150 -91 751 415 
Q 353 922 353 1747 
Q 353 2572 751 3078 
Q 1150 3584 1784 3584 
Q 2172 3584 2448 3432 
Q 2725 3281 2906 2969 
z
M 947 1747 
Q 947 1113 1208 752 
Q 1469 391 1925 391 
Q 2381 391 2643 752 
Q 2906 1113 2906 1747 
Q 2906 2381 2643 2742 
Q 2381 3103 1925 3103 
Q 1469 3103 1208 2742 
Q 947 2381 947 1747 
z
" transform="scale(0.015625)"/>
      <path id="DejaVuSans-61" d="M 2194 1759 
Q 1497 1759 1228 1600 
Q 959 1441 959 1056 
Q 959 750 1161 570 
Q 1363 391 1709 391 
Q 2188 391 2477 730 
Q 2766 1069 2766 1631 
L 2766 1759 
L 2194 1759 
z
M 3341 1997 
L 3341 0 
L 2766 0 
L 2766 531 
Q 2569 213 2275 61 
Q 1981 -91 1556 -91 
Q 1019 -91 701 211 
Q 384 513 384 1019 
Q 384 1609 779 1909 
Q 1175 2209 1959 2209 
L 2766 2209 
L 2766 2266 
Q 2766 2663 2505 2880 
Q 2244 3097 1772 3097 
Q 1472 3097 1187 3025 
Q 903 2953 641 2809 
L 641 3341 
Q 956 3463 1253 3523 
Q 1550 3584 1831 3584 
Q 2591 3584 2966 3190 
Q 3341 2797 3341 1997 
z
" transform="scale(0.015625)"/>
      <path id="DejaVuSans-72" d="M 2631 2963 
Q 2534 3019 2420 3045 
Q 2306 3072 2169 3072 
Q 1681 3072 1420 2755 
Q 1159 2438 1159 1844 
L 1159 0 
L 581 0 
L 581 3500 
L 1159 3500 
L 1159 2956 
Q 1341 3275 1631 3429 
Q 1922 3584 2338 3584 
Q 2397 3584 2469 3576 
Q 2541 3569 2628 3553 
L 2631 2963 
z
" transform="scale(0.015625)"/>
      <path id="DejaVuSans-79" d="M 2059 -325 
Q 1816 -950 1584 -1140 
Q 1353 -1331 966 -1331 
L 506 -1331 
L 506 -850 
L 844 -850 
Q 1081 -850 1212 -737 
Q 1344 -625 1503 -206 
L 1606 56 
L 191 3500 
L 800 3500 
L 1894 763 
L 2988 3500 
L 3597 3500 
L 2059 -325 
z
" transform="scale(0.015625)"/>
      <path id="DejaVuSans-29" d="M 513 4856 
L 1013 4856 
Q 1481 4119 1714 3412 
Q 1947 2706 1947 2009 
Q 1947 1309 1714 600 
Q 1481 -109 1013 -844 
L 513 -844 
Q 928 -128 1133 580 
Q 1338 1288 1338 2009 
Q 1338 2731 1133 3434 
Q 928 4138 513 4856 
z
" transform="scale(0.015625)"/>
     </defs>
     <use xlink:href="#DejaVuSans-28"/>
     <use xlink:href="#DejaVuSans-62" transform="translate(39.013672 0)"/>
     <use xlink:href="#DejaVuSans-6f" transform="translate(102.490234 0)"/>
     <use xlink:href="#DejaVuSans-75" transform="translate(163.671875 0)"/>
     <use xlink:href="#DejaVuSans-6e" transform="translate(227.050781 0)"/>
     <use xlink:href="#DejaVuSans-64" transform="translate(290.429688 0)"/>
     <use xlink:href="#DejaVuSans-61" transform="translate(353.90625 0)"/>
     <use xlink:href="#DejaVuSans-72" transform="translate(415.185547 0)"/>
     <use xlink:href="#DejaVuSans-79" transform="translate(456.298828 0)"/>
     <use xlink:href="#DejaVuSans-29" transform="translate(515.478516 0)"/>
    </g>
   </g>
   <g id="text_4">
    <!-- Counterfactual -->
    <g style="fill: #ffffff" transform="translate(378.33058 406.371931) scale(0.075 -0.075)">
     <defs>
      <path id="DejaVuSans-Bold-43" d="M 4288 256 
Q 3956 84 3597 -3 
Q 3238 -91 2847 -91 
Q 1681 -91 1000 561 
Q 319 1213 319 2328 
Q 319 3447 1000 4098 
Q 1681 4750 2847 4750 
Q 3238 4750 3597 4662 
Q 3956 4575 4288 4403 
L 4288 3438 
Q 3953 3666 3628 3772 
Q 3303 3878 2944 3878 
Q 2300 3878 1931 3465 
Q 1563 3053 1563 2328 
Q 1563 1606 1931 1193 
Q 2300 781 2944 781 
Q 3303 781 3628 887 
Q 3953 994 4288 1222 
L 4288 256 
z
" transform="scale(0.015625)"/>
      <path id="DejaVuSans-Bold-6f" d="M 2203 2784 
Q 1831 2784 1636 2517 
Q 1441 2250 1441 1747 
Q 1441 1244 1636 976 
Q 1831 709 2203 709 
Q 2569 709 2762 976 
Q 2956 1244 2956 1747 
Q 2956 2250 2762 2517 
Q 2569 2784 2203 2784 
z
M 2203 3584 
Q 3106 3584 3614 3096 
Q 4122 2609 4122 1747 
Q 4122 884 3614 396 
Q 3106 -91 2203 -91 
Q 1297 -91 786 396 
Q 275 884 275 1747 
Q 275 2609 786 3096 
Q 1297 3584 2203 3584 
z
" transform="scale(0.015625)"/>
      <path id="DejaVuSans-Bold-6e" d="M 4056 2131 
L 4056 0 
L 2931 0 
L 2931 347 
L 2931 1631 
Q 2931 2084 2911 2256 
Q 2891 2428 2841 2509 
Q 2775 2619 2662 2680 
Q 2550 2741 2406 2741 
Q 2056 2741 1856 2470 
Q 1656 2200 1656 1722 
L 1656 0 
L 538 0 
L 538 3500 
L 1656 3500 
L 1656 2988 
Q 1909 3294 2193 3439 
Q 2478 3584 2822 3584 
Q 3428 3584 3742 3212 
Q 4056 2841 4056 2131 
z
" transform="scale(0.015625)"/>
      <path id="DejaVuSans-Bold-66" d="M 2841 4863 
L 2841 4128 
L 2222 4128 
Q 1984 4128 1890 4042 
Q 1797 3956 1797 3744 
L 1797 3500 
L 2753 3500 
L 2753 2700 
L 1797 2700 
L 1797 0 
L 678 0 
L 678 2700 
L 122 2700 
L 122 3500 
L 678 3500 
L 678 3744 
Q 678 4316 997 4589 
Q 1316 4863 1984 4863 
L 2841 4863 
z
" transform="scale(0.015625)"/>
      <path id="DejaVuSans-Bold-63" d="M 3366 3391 
L 3366 2478 
Q 3138 2634 2908 2709 
Q 2678 2784 2431 2784 
Q 1963 2784 1702 2511 
Q 1441 2238 1441 1747 
Q 1441 1256 1702 982 
Q 1963 709 2431 709 
Q 2694 709 2930 787 
Q 3166 866 3366 1019 
L 3366 103 
Q 3103 6 2833 -42 
Q 2563 -91 2291 -91 
Q 1344 -91 809 395 
Q 275 881 275 1747 
Q 275 2613 809 3098 
Q 1344 3584 2291 3584 
Q 2566 3584 2833 3536 
Q 3100 3488 3366 3391 
z
" transform="scale(0.015625)"/>
     </defs>
     <use xlink:href="#DejaVuSans-Bold-43"/>
     <use xlink:href="#DejaVuSans-Bold-6f" transform="translate(73.388672 0)"/>
     <use xlink:href="#DejaVuSans-Bold-75" transform="translate(142.089844 0)"/>
     <use xlink:href="#DejaVuSans-Bold-6e" transform="translate(213.28125 0)"/>
     <use xlink:href="#DejaVuSans-Bold-74" transform="translate(284.472656 0)"/>
     <use xlink:href="#DejaVuSans-Bold-65" transform="translate(332.275391 0)"/>
     <use xlink:href="#DejaVuSans-Bold-72" transform="translate(400.097656 0)"/>
     <use xlink:href="#DejaVuSans-Bold-66" transform="translate(449.414062 0)"/>
     <use xlink:href="#DejaVuSans-Bold-61" transform="translate(492.919922 0)"/>
     <use xlink:href="#DejaVuSans-Bold-63" transform="translate(560.400391 0)"/>
     <use xlink:href="#DejaVuSans-Bold-74" transform="translate(619.677734 0)"/>
     <use xlink:href="#DejaVuSans-Bold-75" transform="translate(667.480469 0)"/>
     <use xlink:href="#DejaVuSans-Bold-61" transform="translate(738.671875 0)"/>
     <use xlink:href="#DejaVuSans-Bold-6c" transform="translate(806.152344 0)"/>
    </g>
   </g>
   <g id="text_5">
    <!-- Ch 4 -->
    <g style="fill: #ffffff; opacity: 0.8" transform="translate(402.988119 430.906025) scale(0.06 -0.06)">
     <defs>
      <path id="DejaVuSans-43" d="M 4122 4306 
L 4122 3641 
Q 3803 3938 3442 4084 
Q 3081 4231 2675 4231 
Q 1875 4231 1450 3742 
Q 1025 3253 1025 2328 
Q 1025 1406 1450 917 
Q 1875 428 2675 428 
Q 3081 428 3442 575 
Q 3803 722 4122 1019 
L 4122 359 
Q 3791 134 3420 21 
Q 3050 -91 2638 -91 
Q 1578 -91 968 557 
Q 359 1206 359 2328 
Q 359 3453 968 4101 
Q 1578 4750 2638 4750 
Q 3056 4750 3426 4639 
Q 3797 4528 4122 4306 
z
" transform="scale(0.015625)"/>
      <path id="DejaVuSans-68" d="M 3513 2113 
L 3513 0 
L 2938 0 
L 2938 2094 
Q 2938 2591 2744 2837 
Q 2550 3084 2163 3084 
Q 1697 3084 1428 2787 
Q 1159 2491 1159 1978 
L 1159 0 
L 581 0 
L 581 4863 
L 1159 4863 
L 1159 2956 
Q 1366 3272 1645 3428 
Q 1925 3584 2291 3584 
Q 2894 3584 3203 3211 
Q 3513 2838 3513 2113 
z
" transform="scale(0.015625)"/>
      <path id="DejaVuSans-20" transform="scale(0.015625)"/>
      <path id="DejaVuSans-34" d="M 2419 4116 
L 825 1625 
L 2419 1625 
L 2419 4116 
z
M 2253 4666 
L 3047 4666 
L 3047 1625 
L 3713 1625 
L 3713 1100 
L 3047 1100 
L 3047 0 
L 2419 0 
L 2419 1100 
L 313 1100 
L 313 1709 
L 2253 4666 
z
" transform="scale(0.015625)"/>
     </defs>
     <use xlink:href="#DejaVuSans-43"/>
     <use xlink:href="#DejaVuSans-68" transform="translate(69.824219 0)"/>
     <use xlink:href="#DejaVuSans-20" transform="translate(133.203125 0)"/>
     <use xlink:href="#DejaVuSans-34" transform="translate(164.990234 0)"/>
    </g>
   </g>
   <g id="text_6">
    <!-- Multiple -->
    <g style="fill: #ffffff" transform="translate(444.529875 276.726352) scale(0.075 -0.075)">
     <defs>
      <path id="DejaVuSans-Bold-4d" d="M 588 4666 
L 2119 4666 
L 3181 2169 
L 4250 4666 
L 5778 4666 
L 5778 0 
L 4641 0 
L 4641 3413 
L 3566 897 
L 2803 897 
L 1728 3413 
L 1728 0 
L 588 0 
L 588 4666 
z
" transform="scale(0.015625)"/>
      <path id="DejaVuSans-Bold-70" d="M 1656 506 
L 1656 -1331 
L 538 -1331 
L 538 3500 
L 1656 3500 
L 1656 2988 
Q 1888 3294 2169 3439 
Q 2450 3584 2816 3584 
Q 3463 3584 3878 3070 
Q 4294 2556 4294 1747 
Q 4294 938 3878 423 
Q 3463 -91 2816 -91 
Q 2450 -91 2169 54 
Q 1888 200 1656 506 
z
M 2400 2772 
Q 2041 2772 1848 2508 
Q 1656 2244 1656 1747 
Q 1656 1250 1848 986 
Q 2041 722 2400 722 
Q 2759 722 2948 984 
Q 3138 1247 3138 1747 
Q 3138 2247 2948 2509 
Q 2759 2772 2400 2772 
z
" transform="scale(0.015625)"/>
     </defs>
     <use xlink:href="#DejaVuSans-Bold-4d"/>
     <use xlink:href="#DejaVuSans-Bold-75" transform="translate(99.511719 0)"/>
     <use xlink:href="#DejaVuSans-Bold-6c" transform="translate(170.703125 0)"/>
     <use xlink:href="#DejaVuSans-Bold-74" transform="translate(204.980469 0)"/>
     <use xlink:href="#DejaVuSans-Bold-69" transform="translate(252.783203 0)"/>
     <use xlink:href="#DejaVuSans-Bold-70" transform="translate(287.060547 0)"/>
     <use xlink:href="#DejaVuSans-Bold-6c" transform="translate(358.642578 0)"/>
     <use xlink:href="#DejaVuSans-Bold-65" transform="translate(392.919922 0)"/>
    </g>
    <!-- causation -->
    <g style="fill: #ffffff" transform="translate(441.29843 285.124711) scale(0.075 -0.075)">
     <defs>
      <path id="DejaVuSans-Bold-73" d="M 3272 3391 
L 3272 2541 
Q 2913 2691 2578 2766 
Q 2244 2841 1947 2841 
Q 1628 2841 1473 2761 
Q 1319 2681 1319 2516 
Q 1319 2381 1436 2309 
Q 1553 2238 1856 2203 
L 2053 2175 
Q 2913 2066 3209 1816 
Q 3506 1566 3506 1031 
Q 3506 472 3093 190 
Q 2681 -91 1863 -91 
Q 1516 -91 1145 -36 
Q 775 19 384 128 
L 384 978 
Q 719 816 1070 734 
Q 1422 653 1784 653 
Q 2113 653 2278 743 
Q 2444 834 2444 1013 
Q 2444 1163 2330 1236 
Q 2216 1309 1875 1350 
L 1678 1375 
Q 931 1469 631 1722 
Q 331 1975 331 2491 
Q 331 3047 712 3315 
Q 1094 3584 1881 3584 
Q 2191 3584 2531 3537 
Q 2872 3491 3272 3391 
z
" transform="scale(0.015625)"/>
     </defs>
     <use xlink:href="#DejaVuSans-Bold-63"/>
     <use xlink:href="#DejaVuSans-Bold-61" transform="translate(59.277344 0)"/>
     <use xlink:href="#DejaVuSans-Bold-75" transform="translate(126.757812 0)"/>
     <use xlink:href="#DejaVuSans-Bold-73" transform="translate(197.949219 0)"/>
     <use xlink:href="#DejaVuSans-Bold-61" transform="translate(257.470703 0)"/>
     <use xlink:href="#DejaVuSans-Bold-74" transform="translate(324.951172 0)"/>
     <use xlink:href="#DejaVuSans-Bold-69" transform="translate(372.753906 0)"/>
     <use xlink:href="#DejaVuSans-Bold-6f" transform="translate(407.03125 0)"/>
     <use xlink:href="#DejaVuSans-Bold-6e" transform="translate(475.732422 0)"/>
    </g>
   </g>
   <g id="text_7">
    <!-- Ch 5 -->
    <g style="fill: #ffffff; opacity: 0.8" transform="translate(454.949719 305.459625) scale(0.06 -0.06)">
     <defs>
      <path id="DejaVuSans-35" d="M 691 4666 
L 3169 4666 
L 3169 4134 
L 1269 4134 
L 1269 2991 
Q 1406 3038 1543 3061 
Q 1681 3084 1819 3084 
Q 2600 3084 3056 2656 
Q 3513 2228 3513 1497 
Q 3513 744 3044 326 
Q 2575 -91 1722 -91 
Q 1428 -91 1123 -41 
Q 819 9 494 109 
L 494 744 
Q 775 591 1075 516 
Q 1375 441 1709 441 
Q 2250 441 2565 725 
Q 2881 1009 2881 1497 
Q 2881 1984 2565 2268 
Q 2250 2553 1709 2553 
Q 1456 2553 1204 2497 
Q 953 2441 691 2322 
L 691 4666 
z
" transform="scale(0.015625)"/>
     </defs>
     <use xlink:href="#DejaVuSans-43"/>
     <use xlink:href="#DejaVuSans-68" transform="translate(69.824219 0)"/>
     <use xlink:href="#DejaVuSans-20" transform="translate(133.203125 0)"/>
     <use xlink:href="#DejaVuSans-35" transform="translate(164.990234 0)"/>
    </g>
   </g>
   <g id="text_8">
    <!-- Manipulation -->
    <g style="fill: #666666" transform="translate(382.135072 155.479131) scale(0.075 -0.075)">
     <use xlink:href="#DejaVuSans-Bold-4d"/>
     <use xlink:href="#DejaVuSans-Bold-61" transform="translate(99.511719 0)"/>
     <use xlink:href="#DejaVuSans-Bold-6e" transform="translate(166.992188 0)"/>
     <use xlink:href="#DejaVuSans-Bold-69" transform="translate(238.183594 0)"/>
     <use xlink:href="#DejaVuSans-Bold-70" transform="translate(272.460938 0)"/>
     <use xlink:href="#DejaVuSans-Bold-75" transform="translate(344.042969 0)"/>
     <use xlink:href="#DejaVuSans-Bold-6c" transform="translate(415.234375 0)"/>
     <use xlink:href="#DejaVuSans-Bold-61" transform="translate(449.511719 0)"/>
     <use xlink:href="#DejaVuSans-Bold-74" transform="translate(516.992188 0)"/>
     <use xlink:href="#DejaVuSans-Bold-69" transform="translate(564.794922 0)"/>
     <use xlink:href="#DejaVuSans-Bold-6f" transform="translate(599.072266 0)"/>
     <use xlink:href="#DejaVuSans-Bold-6e" transform="translate(667.773438 0)"/>
    </g>
   </g>
   <g id="text_9">
    <!-- (in Ch 4) -->
    <g style="fill: #666666; opacity: 0.8" transform="translate(396.959056 180.013225) scale(0.06 -0.06)">
     <defs>
      <path id="DejaVuSans-69" d="M 603 3500 
L 1178 3500 
L 1178 0 
L 603 0 
L 603 3500 
z
M 603 4863 
L 1178 4863 
L 1178 4134 
L 603 4134 
L 603 4863 
z
" transform="scale(0.015625)"/>
     </defs>
     <use xlink:href="#DejaVuSans-28"/>
     <use xlink:href="#DejaVuSans-69" transform="translate(39.013672 0)"/>
     <use xlink:href="#DejaVuSans-6e" transform="translate(66.796875 0)"/>
     <use xlink:href="#DejaVuSans-20" transform="translate(130.175781 0)"/>
     <use xlink:href="#DejaVuSans-43" transform="translate(161.962891 0)"/>
     <use xlink:href="#DejaVuSans-68" transform="translate(231.787109 0)"/>
     <use xlink:href="#DejaVuSans-20" transform="translate(295.166016 0)"/>
     <use xlink:href="#DejaVuSans-34" transform="translate(326.953125 0)"/>
     <use xlink:href="#DejaVuSans-29" transform="translate(390.576172 0)"/>
    </g>
   </g>
   <g id="text_10">
    <!-- Generative -->
    <g style="fill: #ffffff" transform="translate(261.119531 103.517531) scale(0.075 -0.075)">
     <defs>
      <path id="DejaVuSans-Bold-47" d="M 4781 347 
Q 4331 128 3847 18 
Q 3363 -91 2847 -91 
Q 1681 -91 1000 561 
Q 319 1213 319 2328 
Q 319 3456 1012 4103 
Q 1706 4750 2913 4750 
Q 3378 4750 3804 4662 
Q 4231 4575 4609 4403 
L 4609 3438 
Q 4219 3659 3833 3768 
Q 3447 3878 3059 3878 
Q 2341 3878 1952 3476 
Q 1563 3075 1563 2328 
Q 1563 1588 1938 1184 
Q 2313 781 3003 781 
Q 3191 781 3352 804 
Q 3513 828 3641 878 
L 3641 1784 
L 2906 1784 
L 2906 2591 
L 4781 2591 
L 4781 347 
z
" transform="scale(0.015625)"/>
      <path id="DejaVuSans-Bold-76" d="M 97 3500 
L 1216 3500 
L 2088 1081 
L 2956 3500 
L 4078 3500 
L 2700 0 
L 1472 0 
L 97 3500 
z
" transform="scale(0.015625)"/>
     </defs>
     <use xlink:href="#DejaVuSans-Bold-47"/>
     <use xlink:href="#DejaVuSans-Bold-65" transform="translate(82.080078 0)"/>
     <use xlink:href="#DejaVuSans-Bold-6e" transform="translate(149.902344 0)"/>
     <use xlink:href="#DejaVuSans-Bold-65" transform="translate(221.09375 0)"/>
     <use xlink:href="#DejaVuSans-Bold-72" transform="translate(288.916016 0)"/>
     <use xlink:href="#DejaVuSans-Bold-61" transform="translate(338.232422 0)"/>
     <use xlink:href="#DejaVuSans-Bold-74" transform="translate(405.712891 0)"/>
     <use xlink:href="#DejaVuSans-Bold-69" transform="translate(453.515625 0)"/>
     <use xlink:href="#DejaVuSans-Bold-76" transform="translate(487.792969 0)"/>
     <use xlink:href="#DejaVuSans-Bold-65" transform="translate(552.978516 0)"/>
    </g>
   </g>
   <g id="text_11">
    <!-- Ch 6 -->
    <g style="fill: #ffffff; opacity: 0.8" transform="translate(277.541719 128.051625) scale(0.06 -0.06)">
     <defs>
      <path id="DejaVuSans-36" d="M 2113 2584 
Q 1688 2584 1439 2293 
Q 1191 2003 1191 1497 
Q 1191 994 1439 701 
Q 1688 409 2113 409 
Q 2538 409 2786 701 
Q 3034 994 3034 1497 
Q 3034 2003 2786 2293 
Q 2538 2584 2113 2584 
z
M 3366 4563 
L 3366 3988 
Q 3128 4100 2886 4159 
Q 2644 4219 2406 4219 
Q 1781 4219 1451 3797 
Q 1122 3375 1075 2522 
Q 1259 2794 1537 2939 
Q 1816 3084 2150 3084 
Q 2853 3084 3261 2657 
Q 3669 2231 3669 1497 
Q 3669 778 3244 343 
Q 2819 -91 2113 -91 
Q 1303 -91 875 529 
Q 447 1150 447 2328 
Q 447 3434 972 4092 
Q 1497 4750 2381 4750 
Q 2619 4750 2861 4703 
Q 3103 4656 3366 4563 
z
" transform="scale(0.015625)"/>
     </defs>
     <use xlink:href="#DejaVuSans-43"/>
     <use xlink:href="#DejaVuSans-68" transform="translate(69.824219 0)"/>
     <use xlink:href="#DejaVuSans-20" transform="translate(133.203125 0)"/>
     <use xlink:href="#DejaVuSans-36" transform="translate(164.990234 0)"/>
    </g>
   </g>
   <g id="text_12">
    <!-- Participatory -->
    <g style="fill: #ffffff" transform="translate(131.459655 155.449835) scale(0.075 -0.075)">
     <defs>
      <path id="DejaVuSans-Bold-50" d="M 588 4666 
L 2584 4666 
Q 3475 4666 3951 4270 
Q 4428 3875 4428 3144 
Q 4428 2409 3951 2014 
Q 3475 1619 2584 1619 
L 1791 1619 
L 1791 0 
L 588 0 
L 588 4666 
z
M 1791 3794 
L 1791 2491 
L 2456 2491 
Q 2806 2491 2997 2661 
Q 3188 2831 3188 3144 
Q 3188 3456 2997 3625 
Q 2806 3794 2456 3794 
L 1791 3794 
z
" transform="scale(0.015625)"/>
     </defs>
     <use xlink:href="#DejaVuSans-Bold-50"/>
     <use xlink:href="#DejaVuSans-Bold-61" transform="translate(70.666016 0)"/>
     <use xlink:href="#DejaVuSans-Bold-72" transform="translate(138.146484 0)"/>
     <use xlink:href="#DejaVuSans-Bold-74" transform="translate(187.462891 0)"/>
     <use xlink:href="#DejaVuSans-Bold-69" transform="translate(235.265625 0)"/>
     <use xlink:href="#DejaVuSans-Bold-63" transform="translate(269.542969 0)"/>
     <use xlink:href="#DejaVuSans-Bold-69" transform="translate(328.820312 0)"/>
     <use xlink:href="#DejaVuSans-Bold-70" transform="translate(363.097656 0)"/>
     <use xlink:href="#DejaVuSans-Bold-61" transform="translate(434.679688 0)"/>
     <use xlink:href="#DejaVuSans-Bold-74" transform="translate(502.160156 0)"/>
     <use xlink:href="#DejaVuSans-Bold-6f" transform="translate(549.962891 0)"/>
     <use xlink:href="#DejaVuSans-Bold-72" transform="translate(618.664062 0)"/>
     <use xlink:href="#DejaVuSans-Bold-79" transform="translate(667.980469 0)"/>
    </g>
   </g>
   <g id="text_13">
    <!-- Ch 8 -->
    <g style="fill: #ffffff; opacity: 0.8" transform="translate(152.095319 180.013225) scale(0.06 -0.06)">
     <defs>
      <path id="DejaVuSans-38" d="M 2034 2216 
Q 1584 2216 1326 1975 
Q 1069 1734 1069 1313 
Q 1069 891 1326 650 
Q 1584 409 2034 409 
Q 2484 409 2743 651 
Q 3003 894 3003 1313 
Q 3003 1734 2745 1975 
Q 2488 2216 2034 2216 
z
M 1403 2484 
Q 997 2584 770 2862 
Q 544 3141 544 3541 
Q 544 4100 942 4425 
Q 1341 4750 2034 4750 
Q 2731 4750 3128 4425 
Q 3525 4100 3525 3541 
Q 3525 3141 3298 2862 
Q 3072 2584 2669 2484 
Q 3125 2378 3379 2068 
Q 3634 1759 3634 1313 
Q 3634 634 3220 271 
Q 2806 -91 2034 -91 
Q 1263 -91 848 271 
Q 434 634 434 1313 
Q 434 1759 690 2068 
Q 947 2378 1403 2484 
z
M 1172 3481 
Q 1172 3119 1398 2916 
Q 1625 2713 2034 2713 
Q 2441 2713 2670 2916 
Q 2900 3119 2900 3481 
Q 2900 3844 2670 4047 
Q 2441 4250 2034 4250 
Q 1625 4250 1398 4047 
Q 1172 3844 1172 3481 
z
" transform="scale(0.015625)"/>
     </defs>
     <use xlink:href="#DejaVuSans-43"/>
     <use xlink:href="#DejaVuSans-68" transform="translate(69.824219 0)"/>
     <use xlink:href="#DejaVuSans-20" transform="translate(133.203125 0)"/>
     <use xlink:href="#DejaVuSans-38" transform="translate(164.990234 0)"/>
    </g>
   </g>
   <g id="text_14">
    <!-- Simulated -->
    <g style="fill: #ffffff" transform="translate(85.592391 280.925531) scale(0.075 -0.075)">
     <defs>
      <path id="DejaVuSans-Bold-53" d="M 3834 4519 
L 3834 3531 
Q 3450 3703 3084 3790 
Q 2719 3878 2394 3878 
Q 1963 3878 1756 3759 
Q 1550 3641 1550 3391 
Q 1550 3203 1689 3098 
Q 1828 2994 2194 2919 
L 2706 2816 
Q 3484 2659 3812 2340 
Q 4141 2022 4141 1434 
Q 4141 663 3683 286 
Q 3225 -91 2284 -91 
Q 1841 -91 1394 -6 
Q 947 78 500 244 
L 500 1259 
Q 947 1022 1364 901 
Q 1781 781 2169 781 
Q 2563 781 2772 912 
Q 2981 1044 2981 1288 
Q 2981 1506 2839 1625 
Q 2697 1744 2272 1838 
L 1806 1941 
Q 1106 2091 782 2419 
Q 459 2747 459 3303 
Q 459 4000 909 4375 
Q 1359 4750 2203 4750 
Q 2588 4750 2994 4692 
Q 3400 4634 3834 4519 
z
" transform="scale(0.015625)"/>
      <path id="DejaVuSans-Bold-6d" d="M 3781 2919 
Q 3994 3244 4286 3414 
Q 4578 3584 4928 3584 
Q 5531 3584 5847 3212 
Q 6163 2841 6163 2131 
L 6163 0 
L 5038 0 
L 5038 1825 
Q 5041 1866 5042 1909 
Q 5044 1953 5044 2034 
Q 5044 2406 4934 2573 
Q 4825 2741 4581 2741 
Q 4263 2741 4089 2478 
Q 3916 2216 3909 1719 
L 3909 0 
L 2784 0 
L 2784 1825 
Q 2784 2406 2684 2573 
Q 2584 2741 2328 2741 
Q 2006 2741 1831 2477 
Q 1656 2213 1656 1722 
L 1656 0 
L 531 0 
L 531 3500 
L 1656 3500 
L 1656 2988 
Q 1863 3284 2130 3434 
Q 2397 3584 2719 3584 
Q 3081 3584 3359 3409 
Q 3638 3234 3781 2919 
z
" transform="scale(0.015625)"/>
      <path id="DejaVuSans-Bold-64" d="M 2919 2988 
L 2919 4863 
L 4044 4863 
L 4044 0 
L 2919 0 
L 2919 506 
Q 2688 197 2409 53 
Q 2131 -91 1766 -91 
Q 1119 -91 703 423 
Q 288 938 288 1747 
Q 288 2556 703 3070 
Q 1119 3584 1766 3584 
Q 2128 3584 2408 3439 
Q 2688 3294 2919 2988 
z
M 2181 722 
Q 2541 722 2730 984 
Q 2919 1247 2919 1747 
Q 2919 2247 2730 2509 
Q 2541 2772 2181 2772 
Q 1825 2772 1636 2509 
Q 1447 2247 1447 1747 
Q 1447 1247 1636 984 
Q 1825 722 2181 722 
z
" transform="scale(0.015625)"/>
     </defs>
     <use xlink:href="#DejaVuSans-Bold-53"/>
     <use xlink:href="#DejaVuSans-Bold-69" transform="translate(72.021484 0)"/>
     <use xlink:href="#DejaVuSans-Bold-6d" transform="translate(106.298828 0)"/>
     <use xlink:href="#DejaVuSans-Bold-75" transform="translate(210.498047 0)"/>
     <use xlink:href="#DejaVuSans-Bold-6c" transform="translate(281.689453 0)"/>
     <use xlink:href="#DejaVuSans-Bold-61" transform="translate(315.966797 0)"/>
     <use xlink:href="#DejaVuSans-Bold-74" transform="translate(383.447266 0)"/>
     <use xlink:href="#DejaVuSans-Bold-65" transform="translate(431.25 0)"/>
     <use xlink:href="#DejaVuSans-Bold-64" transform="translate(499.072266 0)"/>
    </g>
   </g>
   <g id="text_15">
    <!-- Ch 9 -->
    <g style="fill: #ffffff; opacity: 0.8" transform="translate(100.133719 305.459625) scale(0.06 -0.06)">
     <defs>
      <path id="DejaVuSans-39" d="M 703 97 
L 703 672 
Q 941 559 1184 500 
Q 1428 441 1663 441 
Q 2288 441 2617 861 
Q 2947 1281 2994 2138 
Q 2813 1869 2534 1725 
Q 2256 1581 1919 1581 
Q 1219 1581 811 2004 
Q 403 2428 403 3163 
Q 403 3881 828 4315 
Q 1253 4750 1959 4750 
Q 2769 4750 3195 4129 
Q 3622 3509 3622 2328 
Q 3622 1225 3098 567 
Q 2575 -91 1691 -91 
Q 1453 -91 1209 -44 
Q 966 3 703 97 
z
M 1959 2075 
Q 2384 2075 2632 2365 
Q 2881 2656 2881 3163 
Q 2881 3666 2632 3958 
Q 2384 4250 1959 4250 
Q 1534 4250 1286 3958 
Q 1038 3666 1038 3163 
Q 1038 2656 1286 2365 
Q 1534 2075 1959 2075 
z
" transform="scale(0.015625)"/>
     </defs>
     <use xlink:href="#DejaVuSans-43"/>
     <use xlink:href="#DejaVuSans-68" transform="translate(69.824219 0)"/>
     <use xlink:href="#DejaVuSans-20" transform="translate(133.203125 0)"/>
     <use xlink:href="#DejaVuSans-39" transform="translate(164.990234 0)"/>
    </g>
   </g>
   <g id="text_16">
    <!-- Diagnostic -->
    <g style="fill: #ffffff" transform="translate(136.561413 406.342634) scale(0.075 -0.075)">
     <defs>
      <path id="DejaVuSans-Bold-44" d="M 1791 3756 
L 1791 909 
L 2222 909 
Q 2959 909 3348 1275 
Q 3738 1641 3738 2338 
Q 3738 3031 3350 3393 
Q 2963 3756 2222 3756 
L 1791 3756 
z
M 588 4666 
L 1856 4666 
Q 2919 4666 3439 4514 
Q 3959 4363 4331 4000 
Q 4659 3684 4818 3271 
Q 4978 2859 4978 2338 
Q 4978 1809 4818 1395 
Q 4659 981 4331 666 
Q 3956 303 3431 151 
Q 2906 0 1856 0 
L 588 0 
L 588 4666 
z
" transform="scale(0.015625)"/>
     </defs>
     <use xlink:href="#DejaVuSans-Bold-44"/>
     <use xlink:href="#DejaVuSans-Bold-69" transform="translate(83.007812 0)"/>
     <use xlink:href="#DejaVuSans-Bold-61" transform="translate(117.285156 0)"/>
     <use xlink:href="#DejaVuSans-Bold-67" transform="translate(184.765625 0)"/>
     <use xlink:href="#DejaVuSans-Bold-6e" transform="translate(256.347656 0)"/>
     <use xlink:href="#DejaVuSans-Bold-6f" transform="translate(327.539062 0)"/>
     <use xlink:href="#DejaVuSans-Bold-73" transform="translate(396.240234 0)"/>
     <use xlink:href="#DejaVuSans-Bold-74" transform="translate(455.761719 0)"/>
     <use xlink:href="#DejaVuSans-Bold-69" transform="translate(503.564453 0)"/>
     <use xlink:href="#DejaVuSans-Bold-63" transform="translate(537.841797 0)"/>
    </g>
   </g>
   <g id="text_17">
    <!-- Ch 7 -->
    <g style="fill: #ffffff; opacity: 0.8" transform="translate(152.095319 430.906025) scale(0.06 -0.06)">
     <defs>
      <path id="DejaVuSans-37" d="M 525 4666 
L 3525 4666 
L 3525 4397 
L 1831 0 
L 1172 0 
L 2766 4134 
L 525 4134 
L 525 4666 
z
" transform="scale(0.015625)"/>
     </defs>
     <use xlink:href="#DejaVuSans-43"/>
     <use xlink:href="#DejaVuSans-68" transform="translate(69.824219 0)"/>
     <use xlink:href="#DejaVuSans-20" transform="translate(133.203125 0)"/>
     <use xlink:href="#DejaVuSans-37" transform="translate(164.990234 0)"/>
    </g>
   </g>
  </g>
 </g>
 <defs>
  <clipPath id="p47724e588b">
   <rect x="7.2" y="7.2" width="554.4" height="554.4"/>
  </clipPath>
 </defs>
</svg>
